<?xml version="1.0" standalone="no"?><!-- Generator: Gravit.io --><svg xmlns="http://www.w3.org/2000/svg" xmlns:xlink="http://www.w3.org/1999/xlink" style="isolation:isolate" viewBox="189.5 249 221 58.644" width="221" height="58.644"><g id="null"><g transform="matrix(1,0,0,1,250.5,249)"><text transform="matrix(1,0,0,1,0,19.239)" style="font-family:&quot;Open Sans&quot;;font-weight:300;font-size:18px;font-style:normal;fill:#ffffff;stroke:none;">Get it on</text></g><g transform="matrix(1,0,0,1,250.5,269.513)"><text transform="matrix(1,0,0,1,0,29.928)" style="font-family:&quot;Open Sans&quot;;font-weight:600;font-size:28px;font-style:normal;fill:#ffffff;stroke:none;">Google Play</text></g><g id="google-play"><path d=" M 214.633 278.235 L 191.224 301.644 C 190.105 300.586 189.5 299.134 189.5 297.561 L 189.5 260.845 C 189.5 259.242 190.135 257.791 191.284 256.702 L 214.633 278.235 Z " fill="rgb(0,209,255)"/><path d=" M 234.866 279.203 C 234.866 281.32 233.717 283.195 231.811 284.254 L 225.158 287.944 L 216.901 280.322 L 214.633 278.235 L 223.373 269.495 L 231.811 274.153 C 233.717 275.211 234.866 277.086 234.866 279.203 Z " fill="rgb(255,200,0)"/><path d=" M 214.633 278.235 L 191.284 256.702 C 191.587 256.399 191.98 256.127 192.373 255.885 C 194.279 254.736 196.577 254.706 198.543 255.795 L 223.373 269.495 L 214.633 278.235 Z " fill="rgb(0,240,118)"/><path d=" M 225.158 287.944 L 198.543 302.612 C 197.605 303.156 196.547 303.398 195.519 303.398 C 194.43 303.398 193.341 303.126 192.373 302.521 C 191.95 302.279 191.557 301.977 191.224 301.644 L 214.633 278.235 L 216.901 280.322 L 225.158 287.944 Z " fill="rgb(249,54,71)"/></g></g></svg>